<?xml version="1.0" standalone="no"?>
<!DOCTYPE svg PUBLIC "-//W3C//DTD SVG 20010904//EN"
 "http://www.w3.org/TR/2001/REC-SVG-20010904/DTD/svg10.dtd">
<svg version="1.0" xmlns="http://www.w3.org/2000/svg"
 width="321.000000pt" height="55.000000pt" viewBox="0 0 321.000000 55.000000"
 preserveAspectRatio="xMidYMid meet">

<g transform="translate(0.000000,55.000000) scale(0.100000,-0.100000)"
fill="#000000" stroke="none">
<path d="M0 435 l0 -115 110 0 110 0 0 115 0 115 -110 0 -110 0 0 -115z"/>
<path d="M320 435 l0 -115 110 0 110 0 0 115 0 115 -110 0 -110 0 0 -115z"/>
<path d="M667 324 c-11 -11 -8 -52 4 -59 5 -4 21 -4 35 -1 20 5 25 12 22 34
-2 20 -9 28 -28 30 -14 2 -29 0 -33 -4z"/>
<path d="M770 164 l0 -165 33 3 c32 3 32 4 35 61 l3 57 49 0 c36 0 56 6 75 22
32 28 43 85 25 129 -18 42 -62 59 -150 59 l-70 0 0 -166z m149 92 c7 -8 11
-27 9 -43 -3 -25 -7 -28 -45 -31 l-43 -3 0 45 c0 46 0 46 34 46 18 0 39 -6 45
-14z"/>
<path d="M1030 165 l0 -166 28 3 27 3 0 160 0 160 -27 3 -28 3 0 -166z"/>
<path d="M1723 315 c-38 -16 -53 -42 -53 -89 0 -44 28 -67 109 -90 53 -15 61
-20 61 -41 0 -43 -87 -49 -105 -8 -7 17 -18 23 -43 23 -30 0 -33 -2 -27 -22
14 -45 36 -67 75 -78 81 -22 156 14 166 80 9 52 -22 85 -92 101 -71 16 -93 32
-78 56 18 29 68 29 92 -1 13 -17 30 -26 47 -26 25 0 27 3 20 27 -9 37 -24 53
-62 70 -40 16 -69 16 -110 -2z"/>
<path d="M2584 316 c-11 -29 1 -51 29 -54 25 -3 27 -1 27 32 0 32 -3 36 -25
36 -14 0 -28 -6 -31 -14z"/>
<path d="M0 120 l0 -110 110 0 110 0 0 110 0 110 -110 0 -110 0 0 -110z"/>
<path d="M320 120 l0 -110 110 0 110 0 0 110 0 110 -110 0 -110 0 0 -110z"/>
<path d="M662 118 l3 -113 30 0 c29 0 30 2 33 50 2 28 1 78 -3 113 -6 61 -7
62 -36 62 l-30 0 3 -112z"/>
<path d="M1130 151 c0 -99 10 -125 51 -140 25 -9 38 -8 60 3 17 8 31 10 35 5
3 -5 16 -9 30 -9 24 0 24 0 24 110 l0 110 -30 0 -30 0 0 -69 c0 -88 -5 -101
-40 -101 -35 0 -40 13 -40 101 l0 69 -30 0 -30 0 0 -79z"/>
<path d="M1396 207 c-29 -29 -34 -68 -10 -87 8 -8 36 -19 62 -25 52 -14 63
-38 19 -43 -18 -2 -29 2 -33 12 -7 18 -74 23 -74 6 0 -21 47 -57 83 -64 46 -9
103 14 118 48 18 38 -7 67 -70 86 -29 8 -53 20 -54 25 -3 14 43 19 56 6 13
-13 67 -15 67 -2 0 28 -39 54 -87 58 -45 5 -55 2 -77 -20z"/>
<path d="M1991 216 c-33 -18 -50 -53 -51 -103 0 -33 6 -50 29 -75 25 -28 36
-33 73 -33 51 0 98 26 98 55 0 24 -35 27 -64 5 -25 -19 -41 -19 -60 1 -28 28
-17 34 59 34 83 0 87 4 64 69 -19 53 -93 77 -148 47z m73 -42 c33 -13 17 -34
-24 -34 -45 0 -47 2 -24 24 17 18 24 19 48 10z"/>
<path d="M2262 214 c-12 -8 -22 -10 -22 -5 0 6 -14 11 -30 11 l-31 0 3 -107 3
-108 30 0 30 0 3 70 c3 74 13 95 43 95 14 0 19 7 19 30 0 34 -14 38 -48 14z"/>
<path d="M2338 225 c-3 -3 13 -55 35 -116 40 -110 40 -110 71 -107 30 3 32 7
68 108 20 58 37 108 37 113 1 4 -12 7 -28 7 -29 0 -31 -4 -54 -77 l-24 -78
-23 78 c-21 71 -25 77 -50 77 -15 0 -29 -2 -32 -5z"/>
<path d="M2582 118 l3 -113 30 0 c34 0 31 -12 27 150 l-2 75 -30 0 -31 0 3
-112z"/>
<path d="M2745 221 c-41 -17 -60 -50 -60 -107 0 -45 4 -58 27 -80 51 -52 154
-30 171 37 4 16 0 19 -27 19 -20 0 -35 -7 -44 -20 -25 -41 -64 -14 -64 45 0
61 36 84 69 45 17 -19 53 -27 66 -14 11 11 -17 56 -44 70 -31 15 -63 17 -94 5z"/>
<path d="M2938 201 c-28 -25 -32 -35 -32 -77 0 -27 6 -60 13 -72 16 -31 75
-55 112 -47 35 8 79 42 79 61 0 19 -44 18 -75 -2 -18 -12 -28 -13 -44 -4 -12
6 -21 17 -21 25 0 12 15 15 69 15 39 0 72 4 75 8 3 5 1 25 -5 45 -21 78 -110
103 -171 48z m100 -33 c21 -21 13 -28 -28 -28 -22 0 -40 4 -40 8 0 14 23 32
40 32 9 0 21 -5 28 -12z"/>
<path d="M3140 35 c0 -32 2 -35 29 -35 36 0 44 10 35 45 -5 19 -12 25 -35 25
-26 0 -29 -3 -29 -35z"/>
</g>
</svg>
